<svg width="23" height="35" viewBox="0 0 23 35" fill="none" xmlns="http://www.w3.org/2000/svg">
<path d="M21.6722 23.2339L14.2181 17.5L21.6722 11.7661C22.2456 11.3223 22.5817 10.6384 22.5828 9.91327C22.5795 9.18818 22.2414 8.50527 21.6668 8.06299L11.7501 0.479678C11.7233 0.459307 11.6948 0.441191 11.6649 0.425537C11.2756 0.148818 10.8099 0.000136719 10.3322 0C9.02233 0.0475098 7.98825 1.12896 7.9994 2.43961V12.6442L3.7389 9.0423C3.49452 8.84406 3.18034 8.75294 2.8678 8.78965C2.55526 8.82636 2.27075 8.98769 2.07886 9.23713L0.658217 11.0845C0.276293 11.5849 0.358188 12.2976 0.843676 12.6983L6.60945 17.5L0.851332 22.2957C0.360512 22.6952 0.275131 23.4121 0.658217 23.9158L2.07893 25.7629C2.27205 26.014 2.55895 26.1758 2.87374 26.2111C3.18854 26.2464 3.50415 26.1522 3.74806 25.95L7.99947 22.3558V32.5604C7.98832 33.8711 9.0226 34.9526 10.3325 35C10.8094 34.9998 11.2746 34.8515 11.6635 34.5754C11.6939 34.5595 11.7229 34.5411 11.7501 34.5204L21.6668 26.937C22.2432 26.4962 22.5817 25.8124 22.5828 25.0868C22.5839 24.3612 22.2473 23.6764 21.6722 23.2339ZM20.9581 26.0102L11.1126 33.5391C11.0861 33.5536 11.0607 33.5701 11.0366 33.5884C10.8356 33.7456 10.588 33.8317 10.3328 33.8333C9.6714 33.7783 9.16342 33.2241 9.16609 32.5604V21.0988C9.16609 20.8718 9.03436 20.6653 8.82832 20.5697C8.62236 20.4742 8.37961 20.5068 8.20618 20.6534L3.00349 25.0515L1.59043 23.1984L7.89433 17.9484C8.02736 17.8375 8.10426 17.6732 8.10426 17.5001C8.10426 17.3269 8.02736 17.1626 7.89433 17.0518L1.58278 11.7958L2.99495 9.94096L8.20618 14.3467C8.37961 14.4933 8.62236 14.526 8.82832 14.4304C9.03429 14.3348 9.16609 14.1283 9.16602 13.9012V2.43961C9.16328 1.77604 9.67113 1.22186 10.3324 1.16669C10.5878 1.16819 10.8354 1.25439 11.0365 1.41162C11.0603 1.4298 11.0854 1.44614 11.1117 1.46036L20.9581 8.98987C21.2463 9.21026 21.4156 9.55227 21.4161 9.91505C21.4166 10.2779 21.2483 10.6203 20.9607 10.8415L12.9057 17.0378C12.7622 17.1482 12.6781 17.319 12.6781 17.5001C12.6781 17.6812 12.7622 17.8519 12.9057 17.9624L20.9607 24.1586C21.2483 24.3798 21.4166 24.7222 21.4161 25.0851C21.4156 25.4478 21.2463 25.7898 20.9581 26.0102Z" fill="#FF4948"/>
<path d="M12.0834 14.5739C12.4056 14.5739 12.6667 14.3128 12.6667 13.9906V7.05467L16.4159 9.92173L14.0609 11.7333C13.8071 11.9302 13.7602 12.2953 13.9562 12.5499C14.1521 12.8046 14.517 12.8528 14.7724 12.6578L17.7301 10.3826C17.8739 10.272 17.958 10.1008 17.9577 9.91941C17.9574 9.73805 17.8728 9.56708 17.7287 9.45689L12.4377 5.4109C12.2614 5.27617 12.0239 5.25306 11.8249 5.35143C11.626 5.44973 11.5001 5.65242 11.5 5.87431V13.9906C11.5001 14.3128 11.7612 14.5739 12.0834 14.5739Z" fill="#FF4948"/>
<path d="M17.7301 24.6171L14.7724 22.3419C14.517 22.1469 14.152 22.1951 13.9561 22.4498C13.7602 22.7044 13.807 23.0695 14.0609 23.2665L16.4159 25.078L12.6666 27.945V21.0091C12.6666 20.6869 12.4055 20.4258 12.0833 20.4258C11.7611 20.4258 11.5 20.6869 11.5 21.0091V29.1253C11.5 29.3473 11.6259 29.55 11.8249 29.6483C12.0239 29.7466 12.2614 29.7235 12.4377 29.5887L17.7287 25.5428C17.8728 25.4326 17.9574 25.2617 17.9577 25.0802C17.958 24.8989 17.8738 24.7277 17.7301 24.6171Z" fill="#FF4948"/>
</svg>
